<?xml version="1.0" encoding="utf-8"?>
<!-- Generator: Adobe Illustrator 27.3.1, SVG Export Plug-In . SVG Version: 6.00 Build 0)  -->
<svg version="1.1" id="Layer_1" xmlns="http://www.w3.org/2000/svg" xmlns:xlink="http://www.w3.org/1999/xlink" x="0px" y="0px"
	 viewBox="0 0 250 250" style="enable-background:new 0 0 250 250;" xml:space="preserve">
<style type="text/css">
	.st0{fill:#080A03;}
	.st1{fill:#3AB26E;}
</style>
<g>
	<g>
		<g>
			<path class="st0" d="M145.2,216.9c3.5,3.1,6,6.9,7.4,11.2l60.1-30.6c-3.5-3-6-6.9-7.4-11.2L145.2,216.9z"/>
			<path class="st0" d="M212.6,52.4l-60.1-30.6c-1.4,4.3-3.8,8.2-7.3,11.2l60.1,30.6C206.6,59.2,209.1,55.4,212.6,52.4z"/>
			<path class="st0" d="M45.7,70.1c0,3.1-0.6,6.1-1.8,8.8c12.9,2.1,26.5,5.3,40.4,9.8c0.6-4.4,1.2-8.7,2-13
				c-14.1-4.4-27.9-7.6-40.9-9.7C45.6,67.3,45.7,68.7,45.7,70.1z"/>
			<path class="st0" d="M186,124.9c14.1-10,26.4-20.6,36.6-31.4c-4.8-1.6-8.8-4.2-11.9-7.6c-10.1,10.6-22.6,21-36.7,30.8
				c-10-6.4-20.6-12.6-31.8-18.3c-8.5-4.3-17-8.3-25.7-11.9c-0.7,4.4-1.2,9-1.7,13.6c6.7,2.9,13.4,6.1,20.1,9.4
				c9.4,4.8,18.4,9.9,26.8,15.2c-8.5,5.3-17.5,10.4-26.8,15.2c-6.7,3.4-13.4,6.5-20.1,9.4c0.4,4.6,1,9.2,1.7,13.6
				c8.6-3.6,17.2-7.5,25.7-11.9c11.1-5.7,21.8-11.8,31.8-18.3c14.2,9.8,26.5,20.3,36.6,30.8c3-3.4,7.1-6,11.9-7.6
				C212.4,145.5,199.9,134.9,186,124.9z"/>
			<path class="st0" d="M43.9,170.9c1.1,2.7,1.8,5.7,1.8,8.8c0,1.4-0.1,2.8-0.3,4.1c13.1-2.1,27-5.3,40.9-9.7c-0.8-4.3-1.5-8.6-2-13
				C70.5,165.6,56.8,168.8,43.9,170.9z"/>
			<path class="st0" d="M105.1,124.9c0-31.2,5.4-60.9,15.2-85c-5-0.7-9.5-2.6-13.4-5.3c-10.5,25.7-16.5,57.3-16.5,90.3
				s5.9,64.6,16.5,90.3c3.7-2.7,8.4-4.6,13.4-5.3C110.6,185.8,105.1,156.1,105.1,124.9z"/>
		</g>
		<g>
			<path class="st1" d="M135,222.1c-2.8-1.8-6.2-2.8-9.9-2.8c-0.1,0-0.2,0-0.3,0c-3.5,0-6.9,1.1-9.5,2.7c-1.4,0.8-2.5,1.8-3.6,3
				c-2.2,2.3-3.5,5.1-3.7,8.3c0,0.4,0,0.9,0,1.3c0,8.4,7.7,15.3,17.3,15.3c9.6,0,17.3-6.8,17.3-15.3c0-0.4,0-0.9,0-1.3
				C141.8,228.7,139.1,224.7,135,222.1z"/>
			<path class="st1" d="M225.5,83.9c0.8,0.3,1.6,0.6,2.4,0.8c0.2,0.1,0.6,0.1,0.9,0.2c0.4,0.1,0.9,0.2,1.5,0.2
				c0.9,0.1,1.8,0.2,2.6,0.2c2.6,0,5.1-0.5,7.3-1.5c5.9-2.4,10-7.7,10-13.8c0-8.4-7.7-15.3-17.2-15.3c-3.7,0-7.1,1-9.9,2.7
				c-4.1,2.5-6.9,6.5-7.4,11.2c0,0.4,0,0.9,0,1.4c0,2.9,0.9,5.6,2.5,7.9C219.7,80.5,222.3,82.6,225.5,83.9z"/>
			<path class="st1" d="M240.1,165.9c-2.3-0.9-4.8-1.5-7.3-1.5c-0.6,0-1.1,0-1.7,0.1c-0.3,0-0.7,0-1,0.1l0,0
				c-0.9,0.1-1.8,0.3-2.6,0.6c-0.2,0-0.4,0.1-0.8,0.2c-0.4,0.1-0.8,0.3-1.2,0.4c-3.2,1.3-5.8,3.4-7.5,6c-1.6,2.3-2.5,5-2.5,7.9
				c0,0.4,0,0.9,0,1.4c0.4,4.6,3.3,8.7,7.4,11.2c2.7,1.7,6.2,2.7,9.9,2.7c9.5,0,17.2-6.8,17.2-15.3C250,173.6,246,168.3,240.1,165.9
				z"/>
			<path class="st1" d="M17.3,54.8C7.8,54.8,0.1,61.6,0.1,70c0,8.4,7.7,15.3,17.2,15.3c6.6,0,12.3-3.2,15.2-8
				c1.4-2.1,2.2-4.6,2.2-7.3c0-2-0.4-3.9-1.2-5.6C30.8,58.9,24.5,54.8,17.3,54.8z"/>
			<path class="st1" d="M17.3,164.5c-9.5,0-17.2,6.8-17.2,15.3c0,8.4,7.7,15.3,17.2,15.3c7.3,0,13.6-4,16.1-9.6
				c0.8-1.7,1.2-3.7,1.2-5.6c0-2.6-0.8-5.1-2.2-7.3C29.5,167.7,23.8,164.5,17.3,164.5z"/>
			<path class="st1" d="M124.7,30.5h0.3c3.7,0,7-1,9.9-2.8c0.2-0.1,0.4-0.3,0.7-0.5c0.2-0.1,0.4-0.3,0.7-0.5c0.4-0.4,1-0.8,1.5-1.2
				c0.2-0.2,0.4-0.5,0.7-0.7c0.1-0.1,0.2-0.3,0.3-0.4c0.1-0.1,0.1-0.2,0.2-0.3c0.1-0.1,0.1-0.2,0.2-0.3c0.1-0.2,0.3-0.4,0.4-0.7
				c0.1-0.2,0.3-0.5,0.4-0.7c0.1-0.2,0.2-0.5,0.3-0.7c0.1-0.2,0.2-0.5,0.3-0.8s0.2-0.5,0.3-0.8c0.1-0.3,0.1-0.6,0.2-0.8
				c0-0.2,0.1-0.5,0.2-0.8c0-0.1,0-0.1,0-0.2c0-0.3,0.1-0.6,0.1-0.8c0-0.1,0-0.1,0-0.2s0-0.3,0-0.4c0-0.4,0-0.9,0-1.3
				c0.7-8.9-7.1-15.7-16.7-15.7c-9.5,0-17.3,6.8-17.3,15.3c0,3.6,1.5,6.9,3.8,9.6C114.6,28.1,119.3,30.4,124.7,30.5z"/>
		</g>
	</g>
	<path class="st1" d="M135,222.1c-2.8-1.8-6.2-2.8-9.9-2.8c-0.1,0-0.2,0-0.3,0c-3.5,0-6.9,1.1-9.5,2.7c-1.4,0.8-2.5,1.8-3.6,3
		c-2.2,2.3-3.5,5.1-3.7,8.3c0,0.4,0,0.9,0,1.3c0,8.4,7.7,15.3,17.3,15.3c9.6,0,17.3-6.8,17.3-15.3c0-0.4,0-0.9,0-1.3
		C141.8,228.7,139.1,224.7,135,222.1z"/>
</g>
</svg>
